# xmcd
#
# Track frame offsets: 
#        150
#        14420
#        28352
#        41448
#        54463
#        67076
#        84317
#        94814
#        108626
#        121537
#        135107
#        149587
#        162292
#        175246
#        189556
#        203731
#        216445
#        225820
#        234405
#        247451
#        261476
#        275272
#        290542
#        302232
#        316675
#
# Disc length: 4398 seconds
#
# Revision: 1
# Processed by: cddbd v1.5.1PL2 Copyright (c) Steve Scherf et al.
# Submitted via: ExactAudioCopy v0.95a5
#
DISCID=6b112c19
DTITLE=Homer translated by Fitzgerald - The Iliad read by Guidall
DYEAR=1994
DGENRE=Speech
TTITLE0=Book 09 j
TTITLE1=Book 09 k
TTITLE2=Book 09 l
TTITLE3=Book 09 m
TTITLE4=Book 09 n
TTITLE5=Book 09 o
TTITLE6=Book 10 a
TTITLE7=Book 10 b
TTITLE8=Book 10 c
TTITLE9=Book 10 d
TTITLE10=Book 10 e
TTITLE11=Book 10 f
TTITLE12=Book 10 g
TTITLE13=Book 10 h
TTITLE14=Book 10 i
TTITLE15=Book 10 j
TTITLE16=Book 10 k
TTITLE17=Book 10 l
TTITLE18=Book 11 a
TTITLE19=Book 11 b
TTITLE20=Book 11 c
TTITLE21=Book 11 d
TTITLE22=Book 11 e
TTITLE23=Book 11 f
TTITLE24=Book 11 g
EXTD=
EXTT0=
EXTT1=
EXTT2=
EXTT3=
EXTT4=
EXTT5=
EXTT6=
EXTT7=
EXTT8=
EXTT9=
EXTT10=
EXTT11=
EXTT12=
EXTT13=
EXTT14=
EXTT15=
EXTT16=
EXTT17=
EXTT18=
EXTT19=
EXTT20=
EXTT21=
EXTT22=
EXTT23=
EXTT24=
PLAYORDER=
